<svg xmlns="http://www.w3.org/2000/svg" width="64" height="64" viewBox="0 0 64 64">
  <rect width="64" height="64" rx="12" fill="#ffffff"/>
  <path d="M54 33c0-1.5-.1-2.6-.4-3.8H32v7.2h12.7c-.3 2.1-1.8 5.2-5.1 7.3l-.1.5 7.4 5.7.5.1C52.3 45.6 54 40 54 33Z" fill="#4285F4"/>
  <path d="M32 55c6.2 0 11.5-2 15.3-5.5l-7.3-5.7c-2 1.4-4.7 2.3-8 2.3-6 0-11.1-3.9-12.9-9.4l-.5.1-7.7 6-.2.5C14.5 50.5 22.6 55 32 55Z" fill="#34A853"/>
  <path d="M19.1 36.7A13.2 13.2 0 0 1 18.4 32c0-1.6.3-3.2.7-4.7l-.1-.5-7.8-6.1-.3.1A22.9 22.9 0 0 0 9 32c0 3.8.9 7.4 2.4 10.7l7.7-6Z" fill="#FBBC05"/>
  <path d="M32 17.8c4.2 0 7 1.8 8.6 3.3l6.3-6.2C42.9 11.2 38.2 9 32 9c-9.4 0-17.5 4.5-21.3 11.8l8.2 6.5c1.8-5.5 7-9.5 13.1-9.5Z" fill="#EA4335"/>
</svg>
