<svg xmlns="http://www.w3.org/2000/svg" width="64" height="64" viewBox="0 0 64 64">
  <rect width="64" height="64" rx="12" fill="#ffffff"/>
  <path d="M11 39.5C11 30.6 16.8 24 24.2 24c4.2 0 7.2 2.2 10.9 7.5 3.8-5.3 6.7-7.5 10.9-7.5C53.2 24 59 30.6 59 39.5c0 7.4-4.7 12.5-10.8 12.5-3.8 0-6.8-2.1-13.1-10.7C28.8 49.9 25.8 52 22 52 15.7 52 11 46.9 11 39.5Zm7.1 0c0 3.7 1.9 6 4.6 6 2.3 0 4.3-1.8 9.4-8.9-3.1-4.2-5.2-6-7.9-6-3.5 0-6.1 3.3-6.1 8.9Zm21.8-2.9c5.1 7.1 7.1 8.9 9.4 8.9 2.7 0 4.6-2.3 4.6-6 0-5.6-2.6-8.9-6.1-8.9-2.7 0-4.8 1.8-7.9 6Z" fill="#0866FF"/>
</svg>
