<svg xmlns="http://www.w3.org/2000/svg" width="64" height="64" viewBox="0 0 64 64">
  <rect width="64" height="64" rx="12" fill="#111111"/>
  <path d="M36.8 18.5c1.6 3.1 3.9 5 7.2 5.9v6c-2.5-.1-4.8-.8-6.8-2v11.1c0 7.1-4.7 11.9-11.6 11.9-5.9 0-10.7-4.4-10.7-10.6 0-6.6 5.2-10.9 11.6-10.8v6.1c-2.6-.1-5.2 1.3-5.2 4.7 0 2.8 2.1 4.7 4.5 4.7 2.5 0 4.9-1.7 4.9-5.2V12.6h6.1v5.9Z" fill="#25F4EE"/>
  <path d="M34.8 16.5c1.6 3.1 3.9 5 7.2 5.9v6c-2.5-.1-4.8-.8-6.8-2v11.1c0 7.1-4.7 11.9-11.6 11.9-5.9 0-10.7-4.4-10.7-10.6 0-6.6 5.2-10.9 11.6-10.8v6.1c-2.6-.1-5.2 1.3-5.2 4.7 0 2.8 2.1 4.7 4.5 4.7 2.5 0 4.9-1.7 4.9-5.2V10.6h6.1v5.9Z" fill="#FE2C55"/>
  <path d="M35.8 17.5c1.6 3.1 3.9 5 7.2 5.9v6c-2.5-.1-4.8-.8-6.8-2v11.1c0 7.1-4.7 11.9-11.6 11.9-5.9 0-10.7-4.4-10.7-10.6 0-6.6 5.2-10.9 11.6-10.8v6.1c-2.6-.1-5.2 1.3-5.2 4.7 0 2.8 2.1 4.7 4.5 4.7 2.5 0 4.9-1.7 4.9-5.2V11.6h6.1v5.9Z" fill="#ffffff"/>
</svg>
