<svg xmlns="http://www.w3.org/2000/svg" viewBox="0 0 512 512" role="img" aria-labelledby="title desc">
  <title>3D cartoon profile avatar</title>
  <desc>Smiling 3D-style cartoon character with glasses and hoodie.</desc>
  <defs>
    <radialGradient id="bg" cx="45%" cy="20%" r="80%">
      <stop offset="0%" stop-color="#f8fbff"/>
      <stop offset="100%" stop-color="#e4eeff"/>
    </radialGradient>
    <radialGradient id="skin" cx="50%" cy="32%" r="70%">
      <stop offset="0%" stop-color="#ffdcbf"/>
      <stop offset="100%" stop-color="#f3b88f"/>
    </radialGradient>
    <linearGradient id="hoodie" x1="0" y1="0" x2="0" y2="1">
      <stop offset="0%" stop-color="#ffd84d"/>
      <stop offset="100%" stop-color="#f8b800"/>
    </linearGradient>
    <linearGradient id="hair" x1="0" y1="0" x2="1" y2="1">
      <stop offset="0%" stop-color="#2a2b33"/>
      <stop offset="100%" stop-color="#101115"/>
    </linearGradient>
  </defs>

  <circle cx="256" cy="256" r="250" fill="url(#bg)"/>
  <circle cx="256" cy="256" r="250" fill="none" stroke="#d5d9e4" stroke-width="10"/>

  <ellipse cx="256" cy="445" rx="130" ry="28" fill="#1f2a44" opacity="0.14"/>

  <path d="M136 430c14-74 60-122 120-122s106 48 120 122" fill="url(#hoodie)"/>
  <rect x="210" y="378" width="92" height="24" rx="9" fill="#e9a900" opacity="0.5"/>

  <ellipse cx="256" cy="244" rx="110" ry="122" fill="url(#skin)"/>
  <ellipse cx="156" cy="245" rx="28" ry="44" fill="#f6c59f"/>
  <ellipse cx="356" cy="245" rx="28" ry="44" fill="#f6c59f"/>

  <path d="M148 214c0-72 49-132 118-132 57 0 95 33 112 86-26-10-50-14-80-14-65 0-95 30-150 60z" fill="url(#hair)"/>
  <path d="M149 220c52-21 80-50 150-50 24 0 47 3 72 10" fill="none" stroke="#3a3d48" stroke-width="10" stroke-linecap="round"/>

  <rect x="162" y="220" width="82" height="64" rx="22" fill="none" stroke="#1f1f24" stroke-width="14"/>
  <rect x="268" y="220" width="82" height="64" rx="22" fill="none" stroke="#1f1f24" stroke-width="14"/>
  <rect x="244" y="244" width="24" height="10" rx="5" fill="#1f1f24"/>

  <path d="M183 250c12-16 30-16 42 0" fill="none" stroke="#1f1f24" stroke-width="7" stroke-linecap="round"/>
  <path d="M287 250c12-16 30-16 42 0" fill="none" stroke="#1f1f24" stroke-width="7" stroke-linecap="round"/>

  <path d="M200 298c22 28 90 28 112 0" fill="#fff" stroke="#8b3d2d" stroke-width="7" stroke-linecap="round"/>

  <circle cx="203" cy="278" r="11" fill="#f4a790" opacity="0.45"/>
  <circle cx="309" cy="278" r="11" fill="#f4a790" opacity="0.45"/>
</svg>
